<?xml version="1.0" encoding="UTF-8" standalone="no"?>
<!DOCTYPE svg PUBLIC "-//W3C//DTD SVG 1.1//EN" "http://www.w3.org/Graphics/SVG/1.1/DTD/svg11.dtd">
<svg width="100%" height="100%" viewBox="0 0 2067 402" version="1.1" xmlns="http://www.w3.org/2000/svg" xmlns:xlink="http://www.w3.org/1999/xlink" xml:space="preserve" xmlns:serif="http://www.serif.com/" style="fill-rule:evenodd;clip-rule:evenodd;stroke-linejoin:round;stroke-miterlimit:2;">
    <g transform="matrix(1,0,0,1,-695.346,-904.192)">
        <path d="M895.159,1241.75C868.724,1239.55 842.802,1229.74 820.971,1212.32C843.754,1198.19 869.281,1190.21 895.159,1188.4L895.159,1241.75ZM918.075,1188.4C932.878,1189.47 947.499,1192.49 961.48,1197.48C971.994,1201.24 982.073,1206.1 991.602,1211.91L992.263,1212.32C970.435,1229.74 944.513,1239.55 918.075,1241.75L918.075,1188.4ZM1043.38,1118.59C1040.58,1146.53 1029.25,1173.78 1009.39,1196.09C981.683,1177.62 950.083,1167.4 918.075,1165.43L918.075,1118.59L1043.38,1118.59ZM769.854,1118.59L895.159,1118.59L895.159,1165.43C863.152,1167.4 831.551,1177.62 803.846,1196.09C783.986,1173.78 772.655,1146.53 769.854,1118.59ZM803.987,1013.28C831.663,1031.7 863.208,1041.88 895.159,1043.85L895.159,1095.67L769.462,1095.67C771.414,1066.02 782.922,1036.88 803.987,1013.28ZM1009.25,1013.28C1030.31,1036.88 1041.82,1066.02 1043.77,1095.67L918.075,1095.67L918.075,1043.85C950.026,1041.88 981.571,1031.7 1009.25,1013.28ZM895.159,967.787L895.159,1020.88C869.349,1019.07 843.888,1011.13 821.149,997.066C842.943,979.737 868.794,969.977 895.159,967.787ZM918.075,967.787C944.439,969.975 970.291,979.734 992.085,997.066C969.347,1011.13 943.885,1019.07 918.075,1020.88L918.075,967.787Z" style="fill:rgb(198,26,44);"/>
    </g>
    <g transform="matrix(1,0,0,1,-695.346,-904.192)">
        <path d="M821.835,1276.75C822.078,1276.27 822.354,1275.94 822.662,1275.76C822.97,1275.58 823.44,1275.49 824.073,1275.49C825.013,1275.49 825.617,1275.65 825.885,1275.98C826.152,1276.3 826.302,1276.94 826.335,1277.9L826.432,1282.23L826.432,1282.48C826.432,1283.36 826.242,1283.98 825.86,1284.34C825.479,1284.69 824.835,1284.87 823.927,1284.87C822.775,1284.87 821.916,1284.3 821.348,1283.15C821.267,1282.99 821.203,1282.85 821.154,1282.75C820.651,1281.82 819.97,1281.11 819.111,1280.64C818.251,1280.17 817.238,1279.93 816.07,1279.93C814.611,1279.93 813.431,1280.24 812.531,1280.87C811.631,1281.49 811.181,1282.29 811.181,1283.27C811.181,1284.65 813.241,1285.74 817.359,1286.53C818.057,1286.67 818.608,1286.78 819.013,1286.85C822.127,1287.48 824.381,1288.44 825.775,1289.73C827.17,1291.03 827.867,1292.79 827.867,1295.03C827.867,1297.8 826.854,1299.92 824.827,1301.42C822.8,1302.91 819.897,1303.66 816.119,1303.66C814.643,1303.66 813.326,1303.57 812.166,1303.39C811.007,1303.21 809.884,1302.93 808.798,1302.56C808.538,1302.95 808.238,1303.23 807.898,1303.4C807.557,1303.58 807.087,1303.66 806.487,1303.66C805.465,1303.66 804.752,1303.48 804.347,1303.12C803.941,1302.76 803.73,1302.12 803.714,1301.2L803.617,1295.91L803.617,1295.66C803.617,1294.67 803.816,1293.98 804.213,1293.59C804.61,1293.2 805.303,1293 806.292,1293C807.346,1293 808.23,1293.71 808.944,1295.12C809.106,1295.47 809.236,1295.73 809.333,1295.91C809.965,1297.07 810.845,1297.93 811.972,1298.5C813.099,1299.07 814.481,1299.36 816.119,1299.36C817.611,1299.36 818.77,1299.07 819.597,1298.5C820.424,1297.93 820.838,1297.13 820.838,1296.09C820.838,1294.48 818.965,1293.27 815.219,1292.44C814.1,1292.2 813.216,1292 812.568,1291.83C809.422,1291.06 807.241,1290.11 806.025,1288.96C804.809,1287.81 804.201,1286.23 804.201,1284.24C804.201,1281.67 805.242,1279.57 807.326,1277.94C809.41,1276.31 812.106,1275.49 815.414,1275.49C816.516,1275.49 817.599,1275.6 818.661,1275.81C819.723,1276.02 820.781,1276.33 821.835,1276.75ZM851.728,1276.75C851.971,1276.27 852.247,1275.94 852.555,1275.76C852.863,1275.58 853.334,1275.49 853.966,1275.49C854.906,1275.49 855.51,1275.65 855.778,1275.98C856.046,1276.3 856.196,1276.94 856.228,1277.9L856.325,1282.23L856.325,1282.48C856.325,1283.36 856.135,1283.98 855.754,1284.34C855.373,1284.69 854.728,1284.87 853.82,1284.87C852.669,1284.87 851.809,1284.3 851.242,1283.15C851.161,1282.99 851.096,1282.85 851.047,1282.75C850.544,1281.82 849.863,1281.11 849.004,1280.64C848.145,1280.17 847.131,1279.93 845.964,1279.93C844.504,1279.93 843.325,1280.24 842.425,1280.87C841.525,1281.49 841.075,1282.29 841.075,1283.27C841.075,1284.65 843.134,1285.74 847.253,1286.53C847.95,1286.67 848.501,1286.78 848.907,1286.85C852.02,1287.48 854.274,1288.44 855.669,1289.73C857.063,1291.03 857.76,1292.79 857.76,1295.03C857.76,1297.8 856.747,1299.92 854.72,1301.42C852.693,1302.91 849.79,1303.66 846.012,1303.66C844.537,1303.66 843.219,1303.57 842.06,1303.39C840.9,1303.21 839.777,1302.93 838.691,1302.56C838.431,1302.95 838.132,1303.23 837.791,1303.4C837.45,1303.58 836.98,1303.66 836.38,1303.66C835.359,1303.66 834.645,1303.48 834.24,1303.12C833.834,1302.76 833.624,1302.12 833.607,1301.2L833.51,1295.91L833.51,1295.66C833.51,1294.67 833.709,1293.98 834.106,1293.59C834.503,1293.2 835.197,1293 836.186,1293C837.24,1293 838.123,1293.71 838.837,1295.12C838.999,1295.47 839.129,1295.73 839.226,1295.91C839.858,1297.07 840.738,1297.93 841.865,1298.5C842.992,1299.07 844.374,1299.36 846.012,1299.36C847.504,1299.36 848.663,1299.07 849.49,1298.5C850.317,1297.93 850.731,1297.13 850.731,1296.09C850.731,1294.48 848.858,1293.27 845.112,1292.44C843.993,1292.2 843.11,1292 842.461,1291.83C839.315,1291.06 837.134,1290.11 835.918,1288.96C834.702,1287.81 834.094,1286.23 834.094,1284.24C834.094,1281.67 835.136,1279.57 837.219,1277.94C839.303,1276.31 841.999,1275.49 845.307,1275.49C846.41,1275.49 847.492,1275.6 848.554,1275.81C849.616,1276.02 850.674,1276.33 851.728,1276.75ZM792.317,1276.98C792.642,1276.44 792.974,1276.06 793.315,1275.83C793.655,1275.6 794.085,1275.49 794.604,1275.49C795.398,1275.49 795.962,1275.69 796.294,1276.08C796.627,1276.47 796.793,1277.14 796.793,1278.08L796.841,1283.94C796.841,1284.98 796.659,1285.68 796.294,1286.04C795.929,1286.4 795.269,1286.58 794.312,1286.58C793.631,1286.58 793.108,1286.43 792.743,1286.13C792.378,1285.83 792.066,1285.27 791.807,1284.46C791.385,1283.03 790.712,1282.01 789.788,1281.38C788.863,1280.76 787.582,1280.45 785.945,1280.45C783.447,1280.45 781.534,1281.23 780.204,1282.79C778.875,1284.36 778.21,1286.62 778.21,1289.58C778.21,1292.52 778.883,1294.78 780.229,1296.36C781.575,1297.94 783.496,1298.73 785.993,1298.73C787.696,1298.73 789.573,1298.2 791.624,1297.15C793.675,1296.1 794.969,1295.57 795.504,1295.57C796.136,1295.57 796.667,1295.82 797.097,1296.32C797.527,1296.81 797.741,1297.43 797.741,1298.16C797.741,1299.49 796.485,1300.73 793.971,1301.9C791.458,1303.08 788.628,1303.66 785.482,1303.66C781.234,1303.66 777.796,1302.36 775.169,1299.76C772.543,1297.16 771.229,1293.77 771.229,1289.58C771.229,1285.54 772.559,1282.18 775.218,1279.5C777.877,1276.83 781.25,1275.49 785.337,1275.49C786.488,1275.49 787.623,1275.61 788.742,1275.85C789.861,1276.09 791.053,1276.47 792.317,1276.98ZM761.468,1281.22L761.468,1298.03L765.554,1298.03C766.657,1298.03 767.447,1298.22 767.925,1298.6C768.404,1298.99 768.643,1299.61 768.643,1300.46C768.643,1301.33 768.4,1301.97 767.913,1302.37C767.427,1302.76 766.64,1302.96 765.554,1302.96L751.106,1302.96C750.003,1302.96 749.213,1302.77 748.734,1302.38C748.256,1301.99 748.017,1301.35 748.017,1300.46C748.017,1299.59 748.252,1298.97 748.722,1298.59C749.192,1298.21 749.987,1298.03 751.106,1298.03L755.192,1298.03L755.192,1281.22L751.106,1281.22C750.003,1281.22 749.213,1281.02 748.734,1280.63C748.256,1280.24 748.017,1279.61 748.017,1278.74C748.017,1277.85 748.252,1277.22 748.722,1276.84C749.192,1276.47 749.987,1276.28 751.106,1276.28L765.554,1276.28C766.705,1276.28 767.508,1276.47 767.962,1276.84C768.416,1277.22 768.643,1277.85 768.643,1278.74C768.643,1279.61 768.408,1280.24 767.938,1280.63C767.467,1281.02 766.673,1281.22 765.554,1281.22L761.468,1281.22ZM869.717,1281.22L871.357,1294.42L874.765,1284.69C875.151,1283.26 877.017,1282.52 879.084,1282.52C881.15,1282.52 882.903,1283.27 883.354,1284.69L887.125,1294.42L888.427,1281.22L887.77,1281.22C886.83,1281.22 886.132,1281.01 885.678,1280.61C885.224,1280.2 884.997,1279.58 884.997,1278.74C884.997,1277.84 885.224,1277.19 885.678,1276.81C886.132,1276.43 886.919,1276.24 888.038,1276.24L893.9,1276.24C895.002,1276.24 895.785,1276.43 896.247,1276.82C896.709,1277.21 896.94,1277.85 896.94,1278.74C896.94,1279.55 896.717,1280.16 896.271,1280.59C895.825,1281.01 895.173,1281.22 894.313,1281.22L893.9,1281.22L891.565,1301.07C891.381,1302.84 889.086,1302.96 888.194,1302.96L887.051,1302.96C886.37,1302.96 884.127,1302.74 883.438,1300.8L878.987,1287.41L874.706,1300.8C874.062,1302.85 871.79,1302.96 871.092,1302.96L869.949,1302.96C869.073,1302.96 866.949,1302.75 866.628,1301.07L864.22,1281.22L863.83,1281.22C862.971,1281.22 862.314,1281.01 861.86,1280.59C861.406,1280.16 861.179,1279.55 861.179,1278.74C861.179,1277.85 861.414,1277.21 861.885,1276.82C862.355,1276.43 863.133,1276.24 864.22,1276.24L870.106,1276.24C871.208,1276.24 871.991,1276.43 872.453,1276.82C872.915,1277.21 873.146,1277.85 873.146,1278.74C873.146,1279.58 872.919,1280.2 872.465,1280.61C872.011,1281.01 871.306,1281.22 870.349,1281.22L869.717,1281.22Z" style="fill:rgb(198,26,44);fill-rule:nonzero;"/>
    </g>
    <g transform="matrix(1,0,0,1,-695.346,-904.192)">
        <path d="M1668.31,1190.36C1667.75,1195.39 1666.46,1198.89 1664.45,1200.85C1662.44,1202.8 1659.25,1203.78 1654.88,1203.78C1650.19,1203.78 1646.69,1202.41 1644.4,1199.67C1642.1,1196.93 1640.79,1192.48 1640.45,1186.33L1638.27,1147.39L1638.27,1144.37C1638.27,1139 1639.31,1135.2 1641.38,1132.96C1643.44,1130.72 1646.88,1129.61 1651.7,1129.61C1658.41,1129.61 1663.22,1134.42 1666.13,1144.04C1667.47,1148.85 1668.76,1152.49 1669.99,1154.95C1673.9,1162.78 1680.09,1168.82 1688.53,1173.07C1696.98,1177.32 1707.08,1179.45 1718.82,1179.45C1733.26,1179.45 1744.98,1176.04 1753.98,1169.21C1762.99,1162.39 1767.49,1153.66 1767.49,1143.03C1767.49,1134.19 1764.72,1127.09 1759.18,1121.72C1753.65,1116.35 1745.56,1112.88 1734.93,1111.31L1710.1,1107.96C1686.94,1104.71 1670.04,1098.61 1659.42,1089.66C1648.79,1080.71 1643.47,1068.13 1643.47,1051.9C1643.47,1034.79 1650.55,1020.41 1664.7,1008.77C1678.86,997.139 1696.5,991.321 1717.65,991.321C1723.8,991.321 1730.29,992.132 1737.12,993.754C1743.94,995.377 1751.66,997.922 1760.28,1001.39C1760.5,998.146 1761.39,995.908 1762.96,994.677C1764.53,993.447 1767.21,992.831 1771.02,992.831C1775.94,992.831 1779.35,993.559 1781.25,995.013C1783.15,996.467 1784.33,999.936 1784.78,1005.42L1787.13,1040.49L1787.13,1042.17C1787.13,1046.09 1786.01,1049.13 1783.77,1051.32C1781.53,1053.5 1778.4,1054.59 1774.37,1054.59C1768.44,1054.59 1763.86,1050.45 1760.61,1042.17C1759.05,1037.47 1757.48,1033.95 1755.91,1031.6C1752.22,1026 1746.91,1021.7 1739.97,1018.68C1733.03,1015.65 1725.15,1014.14 1716.31,1014.14C1702.77,1014.14 1691.78,1017.5 1683.33,1024.21C1674.88,1030.93 1670.66,1039.71 1670.66,1050.56C1670.66,1059.06 1673.82,1065.78 1680.14,1070.7C1686.46,1075.62 1696.11,1078.98 1709.09,1080.77L1735.94,1084.13C1755.41,1086.7 1770.07,1092.66 1779.91,1102C1789.76,1111.34 1794.68,1123.95 1794.68,1139.84C1794.68,1158.64 1787.69,1173.71 1773.7,1185.07C1759.72,1196.43 1741.03,1202.1 1717.65,1202.1C1709.59,1202.1 1701.6,1201.15 1693.65,1199.25C1685.71,1197.35 1677.26,1194.38 1668.31,1190.36ZM2565.74,1096.54C2565.74,1127.2 2557.24,1152.35 2540.23,1171.98C2523.22,1191.62 2501.46,1201.43 2474.95,1201.43C2448.66,1201.43 2426.98,1191.59 2409.92,1171.9C2392.86,1152.2 2384.33,1127.09 2384.33,1096.54C2384.33,1065.66 2392.77,1040.46 2409.67,1020.94C2426.56,1001.42 2448.32,991.657 2474.95,991.657C2501.46,991.657 2523.22,1001.5 2540.23,1021.19C2557.24,1040.88 2565.74,1066 2565.74,1096.54ZM1268.49,1021.36L1243.99,1021.36C1237.16,1021.36 1232.38,1020.44 1229.64,1018.59C1226.9,1016.75 1225.53,1013.64 1225.53,1009.28C1225.53,1004.69 1226.73,1001.53 1229.13,999.796C1231.54,998.062 1238.11,997.195 1248.85,997.195L1296.68,997.195C1302.84,997.195 1307,998.006 1309.18,999.628C1311.37,1001.25 1313.35,1004.24 1315.14,1008.61L1380.76,1172.57L1383.61,1172.57C1389.65,1172.57 1393.79,1173.41 1396.03,1175.08C1398.27,1176.76 1399.39,1179.78 1399.39,1184.15C1399.39,1188.73 1398.33,1191.89 1396.2,1193.63C1394.07,1195.36 1390.1,1196.23 1384.28,1196.23L1338.64,1196.23C1330.13,1196.23 1324.68,1195.36 1322.28,1193.63C1319.87,1191.89 1318.67,1188.73 1318.67,1184.15C1318.67,1179.89 1319.98,1176.9 1322.61,1175.17C1325.24,1173.43 1330.19,1172.57 1337.46,1172.57L1353.07,1172.57L1336.79,1132.63L1251.54,1132.63L1237.11,1172.57L1253.38,1172.57C1260.77,1172.57 1265.8,1173.43 1268.49,1175.17C1271.17,1176.9 1272.52,1179.89 1272.52,1184.15C1272.52,1188.73 1271.31,1191.89 1268.91,1193.63C1266.5,1195.36 1261.22,1196.23 1253.05,1196.23L1208.91,1196.23C1201.75,1196.23 1197,1195.36 1194.65,1193.63C1192.3,1191.89 1191.12,1188.73 1191.12,1184.15C1191.12,1179.78 1192.3,1176.76 1194.65,1175.08C1197,1173.41 1201.53,1172.57 1208.24,1172.57L1211.43,1172.57L1268.49,1021.36ZM2747.99,1196.23L2601.49,1196.23C2597.46,1196.23 2594.41,1195.22 2592.34,1193.21C2590.27,1191.19 2589.23,1188.17 2589.23,1184.15C2589.23,1179.67 2590.44,1176.62 2592.84,1175C2595.25,1173.38 2600.76,1172.57 2609.37,1172.57L2620.11,1172.57L2620.11,1021.36L2609.37,1021.36C2600.98,1021.36 2595.53,1020.49 2593.01,1018.76C2590.49,1017.02 2589.23,1013.87 2589.23,1009.28C2589.23,1005.14 2590.27,1002.09 2592.34,1000.13C2594.41,998.174 2597.57,997.195 2601.82,997.195L2747.99,997.195C2751.8,997.195 2754.68,998.341 2756.64,1000.63C2758.59,1002.93 2759.57,1006.26 2759.57,1010.62L2759.57,1050.23C2759.57,1056.04 2758.73,1060.07 2757.05,1062.31C2755.38,1064.55 2752.36,1065.66 2747.99,1065.66C2743.41,1065.66 2740.24,1064.43 2738.51,1061.97C2736.78,1059.51 2735.91,1053.97 2735.91,1045.36L2735.91,1021.36L2646.63,1021.36L2646.63,1077.92L2690.6,1077.92L2690.6,1069.02C2690.6,1062.98 2691.41,1058.79 2693.03,1056.43C2694.65,1054.09 2697.48,1052.91 2701.51,1052.91C2705.42,1052.91 2708.14,1054.17 2709.64,1056.69C2711.16,1059.2 2711.91,1064.6 2711.91,1072.88L2711.91,1104.1C2711.91,1112.49 2711.13,1117.86 2709.56,1120.21C2707.99,1122.56 2705.2,1123.73 2701.17,1123.73C2697.14,1123.73 2694.37,1122.39 2692.86,1119.7C2691.35,1117.02 2690.6,1111.82 2690.6,1104.1L2690.6,1098.22L2646.63,1098.22L2646.63,1172.57L2735.91,1172.57L2735.91,1145.38C2735.91,1136.77 2736.78,1131.23 2738.51,1128.77C2740.24,1126.31 2743.41,1125.07 2747.99,1125.07C2752.24,1125.07 2755.24,1126.22 2756.97,1128.51C2758.7,1130.81 2759.57,1135.14 2759.57,1141.52L2759.57,1183.81C2759.57,1187.84 2758.57,1190.91 2756.55,1193.04C2754.54,1195.17 2751.68,1196.23 2747.99,1196.23ZM2042.99,1064.99C2042.77,1073.38 2041.79,1078.73 2040.06,1081.02C2038.32,1083.32 2034.94,1084.46 2029.9,1084.46C2025.99,1084.46 2023.05,1083.43 2021.09,1081.36C2019.13,1079.29 2018.16,1076.24 2018.16,1072.21C2018.16,1072.21 2018.21,1071.34 2018.32,1069.61C2018.43,1067.88 2018.49,1066.11 2018.49,1064.32L2020.17,1008.94C2020.39,1004.8 2021.51,1001.81 2023.53,999.964C2025.54,998.118 2028.67,997.195 2032.92,997.195L2178.76,997.195C2183.01,997.195 2186.14,998.118 2188.16,999.964C2190.17,1001.81 2191.23,1004.8 2191.35,1008.94L2193.19,1064.32C2193.19,1066.34 2193.25,1068.24 2193.36,1070.03C2193.47,1071.82 2193.53,1072.66 2193.53,1072.55C2193.53,1076.57 2192.47,1079.57 2190.34,1081.52C2188.21,1083.48 2185.03,1084.46 2180.77,1084.46C2176.3,1084.46 2173.22,1083.32 2171.54,1081.02C2169.87,1078.73 2168.91,1073.38 2168.69,1064.99L2167.01,1021.36L2118.85,1021.36L2118.85,1172.57L2151.24,1172.57C2155.94,1172.57 2159.35,1173.49 2161.47,1175.34C2163.6,1177.18 2164.66,1180.12 2164.66,1184.15C2164.66,1188.06 2163.66,1191.06 2161.64,1193.12C2159.63,1195.19 2156.72,1196.23 2152.91,1196.23L2058.77,1196.23C2054.96,1196.23 2052.05,1195.19 2050.04,1193.12C2048.03,1191.06 2047.02,1188.06 2047.02,1184.15C2047.02,1180.01 2048.11,1177.04 2050.29,1175.25C2052.47,1173.46 2056.2,1172.57 2061.45,1172.57L2092.84,1172.57L2092.84,1021.36L2044.67,1021.36L2042.99,1064.99ZM1521.71,1113.66L1557.79,1008.61C1559.36,1004.58 1561.51,1001.67 1564.25,999.88C1566.99,998.09 1570.94,997.195 1576.08,997.195L1603.61,997.195C1607.19,997.195 1609.9,998.174 1611.75,1000.13C1613.59,1002.09 1614.51,1004.91 1614.51,1008.61C1614.51,1012.86 1613.37,1015.8 1611.07,1017.42C1608.78,1019.04 1604.56,1019.85 1598.4,1019.85L1595.72,1019.85L1600.42,1172.57L1604.28,1172.57C1611.55,1172.57 1616.42,1173.38 1618.88,1175C1621.34,1176.62 1622.57,1179.67 1622.57,1184.15C1622.57,1188.06 1621.56,1191.06 1619.55,1193.12C1617.54,1195.19 1614.63,1196.23 1610.82,1196.23L1563.66,1196.23C1557.17,1196.23 1552.76,1195.34 1550.41,1193.55C1548.06,1191.76 1546.88,1188.62 1546.88,1184.15C1546.88,1179.78 1548.28,1176.76 1551.08,1175.08C1553.88,1173.41 1559.25,1172.57 1567.19,1172.57L1574.4,1172.57L1570.88,1028.24L1537.65,1124.74C1535.97,1129.44 1533.9,1132.68 1531.44,1134.47C1528.98,1136.26 1525.29,1137.16 1520.37,1137.16C1515.67,1137.16 1512.09,1136.23 1509.63,1134.39C1507.16,1132.54 1505.15,1129.33 1503.58,1124.74L1469.85,1028.24L1466.83,1172.57L1478.08,1172.57C1484.68,1172.57 1489.32,1173.46 1492.01,1175.25C1494.69,1177.04 1496.03,1180.01 1496.03,1184.15C1496.03,1188.62 1494.86,1191.76 1492.51,1193.55C1490.16,1195.34 1485.68,1196.23 1479.08,1196.23L1432.09,1196.23C1428.18,1196.23 1425.24,1195.22 1423.28,1193.21C1421.32,1191.19 1420.35,1188.17 1420.35,1184.15C1420.35,1179.67 1421.58,1176.62 1424.04,1175C1426.5,1173.38 1431.37,1172.57 1438.64,1172.57L1442.33,1172.57L1447.2,1019.85L1444.51,1019.85C1438.36,1019.85 1434.11,1019.04 1431.76,1017.42C1429.41,1015.8 1428.23,1012.86 1428.23,1008.61C1428.23,1004.91 1429.18,1002.09 1431.09,1000.13C1432.99,998.174 1435.73,997.195 1439.31,997.195L1466.83,997.195C1471.98,997.195 1475.92,998.09 1478.66,999.88C1481.4,1001.67 1483.5,1004.58 1484.96,1008.61L1521.71,1113.66ZM1883.81,1021.36L1859.3,1021.36C1852.48,1021.36 1847.7,1020.44 1844.95,1018.59C1842.21,1016.75 1840.84,1013.64 1840.84,1009.28C1840.84,1004.69 1842.05,1001.53 1844.45,999.796C1846.86,998.062 1853.43,997.195 1864.17,997.195L1912,997.195C1918.15,997.195 1922.32,998.006 1924.5,999.628C1926.68,1001.25 1928.67,1004.24 1930.46,1008.61L1996.08,1172.57L1998.93,1172.57C2004.97,1172.57 2009.11,1173.41 2011.35,1175.08C2013.59,1176.76 2014.71,1179.78 2014.71,1184.15C2014.71,1188.73 2013.64,1191.89 2011.52,1193.63C2009.39,1195.36 2005.42,1196.23 1999.6,1196.23L1953.95,1196.23C1945.45,1196.23 1940,1195.36 1937.59,1193.63C1935.19,1191.89 1933.98,1188.73 1933.98,1184.15C1933.98,1179.89 1935.3,1176.9 1937.93,1175.17C1940.56,1173.43 1945.51,1172.57 1952.78,1172.57L1968.39,1172.57L1952.11,1132.63L1866.86,1132.63L1852.42,1172.57L1868.7,1172.57C1876.09,1172.57 1881.12,1173.43 1883.81,1175.17C1886.49,1176.9 1887.83,1179.89 1887.83,1184.15C1887.83,1188.73 1886.63,1191.89 1884.23,1193.63C1881.82,1195.36 1876.53,1196.23 1868.37,1196.23L1824.23,1196.23C1817.07,1196.23 1812.31,1195.36 1809.96,1193.63C1807.62,1191.89 1806.44,1188.73 1806.44,1184.15C1806.44,1179.78 1807.62,1176.76 1809.96,1175.08C1812.31,1173.41 1816.85,1172.57 1823.56,1172.57L1826.75,1172.57L1883.81,1021.36ZM2474.95,1177.6C2493.74,1177.6 2508.54,1170.41 2519.34,1156.04C2530.13,1141.66 2535.53,1121.83 2535.53,1096.54C2535.53,1071.26 2530.13,1051.43 2519.34,1037.05C2508.54,1022.68 2493.74,1015.49 2474.95,1015.49C2456.04,1015.49 2441.24,1022.62 2430.56,1036.88C2419.88,1051.15 2414.53,1071.04 2414.53,1096.54C2414.53,1121.83 2419.93,1141.66 2430.73,1156.04C2441.52,1170.41 2456.26,1177.6 2474.95,1177.6ZM2225.11,1134.98C2223.32,1134.98 2221.91,1134.28 2220.88,1132.88C2219.85,1131.48 2219.33,1129.55 2219.33,1127.09L2219.33,1109.3C2219.33,1107.17 2219.85,1105.5 2220.88,1104.26C2221.91,1103.03 2223.32,1102.42 2225.11,1102.42L2336.4,1102.42C2338.46,1102.42 2340.07,1103.03 2341.24,1104.26C2342.4,1105.5 2342.98,1107.17 2342.98,1109.3L2342.98,1127.09C2342.98,1129.1 2342.31,1130.92 2340.97,1132.54C2339.63,1134.16 2338.1,1134.98 2336.4,1134.98L2225.11,1134.98ZM1259.93,1110.31L1328.57,1110.31L1292.49,1021.36L1259.93,1110.31ZM1875.25,1110.31L1943.88,1110.31L1907.8,1021.36L1875.25,1110.31Z" style="fill:white;fill-rule:nonzero;"/>
    </g>
    <g transform="matrix(1,0,0,1,-695.346,-904.192)">
        <path d="M714.42,1055.13C736.479,969.586 814.214,906.298 906.617,906.298C1016.15,906.298 1105.09,995.228 1105.09,1104.77C1105.09,1212.21 1019.52,1299.83 912.867,1303.14C912.867,1303.14 912.867,1276.04 912.867,1276.04C1004.57,1272.75 1078,1197.26 1078,1104.77C1078,1010.18 1001.21,933.381 906.617,933.381C827.523,933.381 760.867,987.071 741.154,1059.96L760.587,1063.48L715.41,1126.99L695.346,1051.68L714.42,1055.13Z" style="fill:rgb(198,26,44);"/>
    </g>
</svg>
